<?xml version="1.0" encoding="UTF-8" standalone="no"?>
<!DOCTYPE svg PUBLIC "-//W3C//DTD SVG 1.1//EN" "http://www.w3.org/Graphics/SVG/1.1/DTD/svg11.dtd">
<svg width="100%" height="100%" viewBox="0 0 512 512" version="1.1" xmlns="http://www.w3.org/2000/svg" xmlns:xlink="http://www.w3.org/1999/xlink" xml:space="preserve" xmlns:serif="http://www.serif.com/" style="fill-rule:evenodd;clip-rule:evenodd;stroke-linejoin:round;stroke-miterlimit:2;">
    <g transform="matrix(1,0,0,1,-571,-0.491667)">
        <g id="画板1" transform="matrix(1,0,0,1,571,0.491667)">
            <rect x="0" y="0" width="512" height="512" style="fill:none;"/>
            <g transform="matrix(1.09636,0,0,1.09636,-28.5054,-10.4154)">
                <rect x="26" y="60" width="467" height="366" style="fill:rgb(11,12,16);"/>
            </g>
            <g transform="matrix(1.09636,0,0,0.407391,-28.5054,157.004)">
                <rect x="26" y="60" width="467" height="366" style="fill:rgb(0,67,159);"/>
            </g>
            <g transform="matrix(1.09636,0,0,1.09636,-47.1941,27.7415)">
                <path d="M92.221,120.122C87.646,120.122 83.409,119.259 79.509,117.534C75.609,115.809 72.215,113.315 69.327,110.053C66.44,106.79 64.171,102.778 62.521,98.015C60.871,93.253 60.046,87.872 60.046,81.872C60.046,75.947 60.871,70.622 62.521,65.897C64.171,61.172 66.459,57.159 69.384,53.859C72.309,50.559 75.796,48.028 79.846,46.265C83.896,44.503 88.321,43.622 93.121,43.622C97.546,43.622 101.465,44.522 104.877,46.322C108.29,48.122 111.084,50.222 113.259,52.622L107.971,58.584C106.021,56.559 103.846,54.928 101.446,53.69C99.046,52.453 96.271,51.834 93.121,51.834C89.596,51.834 86.39,52.528 83.502,53.915C80.615,55.303 78.159,57.29 76.134,59.878C74.109,62.465 72.534,65.597 71.409,69.272C70.284,72.947 69.721,77.072 69.721,81.647C69.721,86.297 70.284,90.478 71.409,94.19C72.534,97.903 74.109,101.072 76.134,103.697C78.159,106.322 80.615,108.347 83.502,109.772C86.39,111.197 89.596,111.909 93.121,111.909C96.496,111.909 99.515,111.197 102.177,109.772C104.84,108.347 107.371,106.322 109.771,103.697L115.059,109.434C112.134,112.809 108.834,115.434 105.159,117.309C101.484,119.184 97.171,120.122 92.221,120.122Z" style="fill:white;fill-rule:nonzero;"/>
                <rect x="129.796" y="78.159" width="48.375" height="6.975" style="fill:white;fill-rule:nonzero;"/>
                <path d="M229.134,118.772L229.134,98.972L192.121,98.972L192.121,92.784L228.009,46.997L237.909,46.997L237.909,91.547L249.046,91.547L249.046,98.972L237.909,98.972L237.909,118.772L229.134,118.772ZM202.359,91.547L229.134,91.547L229.134,69.272C229.209,67.322 229.284,65.203 229.359,62.915C229.434,60.628 229.546,58.509 229.696,56.559L229.134,56.559C228.009,58.284 226.809,60.028 225.534,61.79C224.259,63.553 223.021,65.297 221.821,67.022L202.359,91.547Z" style="fill:white;fill-rule:nonzero;"/>
            </g>
            <g transform="matrix(1.09636,0,0,1.09636,-47.1941,166.778)">
                <path d="M92.221,120.122C87.646,120.122 83.409,119.259 79.509,117.534C75.609,115.809 72.215,113.315 69.327,110.053C66.44,106.79 64.171,102.778 62.521,98.015C60.871,93.253 60.046,87.872 60.046,81.872C60.046,75.947 60.871,70.622 62.521,65.897C64.171,61.172 66.459,57.159 69.384,53.859C72.309,50.559 75.796,48.028 79.846,46.265C83.896,44.503 88.321,43.622 93.121,43.622C97.546,43.622 101.465,44.522 104.877,46.322C108.29,48.122 111.084,50.222 113.259,52.622L107.971,58.584C106.021,56.559 103.846,54.928 101.446,53.69C99.046,52.453 96.271,51.834 93.121,51.834C89.596,51.834 86.39,52.528 83.502,53.915C80.615,55.303 78.159,57.29 76.134,59.878C74.109,62.465 72.534,65.597 71.409,69.272C70.284,72.947 69.721,77.072 69.721,81.647C69.721,86.297 70.284,90.478 71.409,94.19C72.534,97.903 74.109,101.072 76.134,103.697C78.159,106.322 80.615,108.347 83.502,109.772C86.39,111.197 89.596,111.909 93.121,111.909C96.496,111.909 99.515,111.197 102.177,109.772C104.84,108.347 107.371,106.322 109.771,103.697L115.059,109.434C112.134,112.809 108.834,115.434 105.159,117.309C101.484,119.184 97.171,120.122 92.221,120.122Z" style="fill:white;fill-rule:nonzero;"/>
                <rect x="129.796" y="78.159" width="48.375" height="6.975" style="fill:white;fill-rule:nonzero;"/>
                <path d="M229.134,118.772L229.134,98.972L192.121,98.972L192.121,92.784L228.009,46.997L237.909,46.997L237.909,91.547L249.046,91.547L249.046,98.972L237.909,98.972L237.909,118.772L229.134,118.772ZM202.359,91.547L229.134,91.547L229.134,69.272C229.209,67.322 229.284,65.203 229.359,62.915C229.434,60.628 229.546,58.509 229.696,56.559L229.134,56.559C228.009,58.284 226.809,60.028 225.534,61.79C224.259,63.553 223.021,65.297 221.821,67.022L202.359,91.547Z" style="fill:white;fill-rule:nonzero;"/>
            </g>
            <g transform="matrix(1.09636,0,0,1.09636,-47.1941,304.737)">
                <path d="M62.521,118.772L62.521,44.972L80.746,44.972C91.921,44.972 100.415,48.122 106.227,54.422C112.04,60.722 114.946,69.759 114.946,81.534C114.946,93.309 112.04,102.459 106.227,108.984C100.415,115.509 92.071,118.772 81.196,118.772L62.521,118.772ZM71.859,111.122L80.071,111.122C88.546,111.122 94.865,108.534 99.027,103.359C103.19,98.184 105.271,90.909 105.271,81.534C105.271,72.159 103.19,64.997 99.027,60.047C94.865,55.097 88.546,52.622 80.071,52.622L71.859,52.622L71.859,111.122Z" style="fill:white;fill-rule:nonzero;"/>
                <rect x="129.796" y="78.159" width="48.375" height="6.975" style="fill:white;fill-rule:nonzero;"/>
                <path d="M229.134,118.772L229.134,98.972L192.121,98.972L192.121,92.784L228.009,46.997L237.909,46.997L237.909,91.547L249.046,91.547L249.046,98.972L237.909,98.972L237.909,118.772L229.134,118.772ZM202.359,91.547L229.134,91.547L229.134,69.272C229.209,67.322 229.284,65.203 229.359,62.915C229.434,60.628 229.546,58.509 229.696,56.559L229.134,56.559C228.009,58.284 226.809,60.028 225.534,61.79C224.259,63.553 223.021,65.297 221.821,67.022L202.359,91.547Z" style="fill:white;fill-rule:nonzero;"/>
            </g>
            <g transform="matrix(1.09636,0,0,1.09636,220.318,303.312)">
                <path d="M62.521,118.772L62.521,44.972L80.746,44.972C91.921,44.972 100.415,48.122 106.227,54.422C112.04,60.722 114.946,69.759 114.946,81.534C114.946,93.309 112.04,102.459 106.227,108.984C100.415,115.509 92.071,118.772 81.196,118.772L62.521,118.772ZM71.859,111.122L80.071,111.122C88.546,111.122 94.865,108.534 99.027,103.359C103.19,98.184 105.271,90.909 105.271,81.534C105.271,72.159 103.19,64.997 99.027,60.047C94.865,55.097 88.546,52.622 80.071,52.622L71.859,52.622L71.859,111.122Z" style="fill:white;fill-rule:nonzero;"/>
                <rect x="129.796" y="78.159" width="48.375" height="6.975" style="fill:white;fill-rule:nonzero;"/>
                <path d="M229.134,118.772L229.134,98.972L192.121,98.972L192.121,92.784L228.009,46.997L237.909,46.997L237.909,91.547L249.046,91.547L249.046,98.972L237.909,98.972L237.909,118.772L229.134,118.772ZM202.359,91.547L229.134,91.547L229.134,69.272C229.209,67.322 229.284,65.203 229.359,62.915C229.434,60.628 229.546,58.509 229.696,56.559L229.134,56.559C228.009,58.284 226.809,60.028 225.534,61.79C224.259,63.553 223.021,65.297 221.821,67.022L202.359,91.547Z" style="fill:white;fill-rule:nonzero;"/>
            </g>
            <g transform="matrix(1.09636,0,0,1.09636,220.318,166.778)">
                <path d="M92.221,120.122C87.646,120.122 83.409,119.259 79.509,117.534C75.609,115.809 72.215,113.315 69.327,110.053C66.44,106.79 64.171,102.778 62.521,98.015C60.871,93.253 60.046,87.872 60.046,81.872C60.046,75.947 60.871,70.622 62.521,65.897C64.171,61.172 66.459,57.159 69.384,53.859C72.309,50.559 75.796,48.028 79.846,46.265C83.896,44.503 88.321,43.622 93.121,43.622C97.546,43.622 101.465,44.522 104.877,46.322C108.29,48.122 111.084,50.222 113.259,52.622L107.971,58.584C106.021,56.559 103.846,54.928 101.446,53.69C99.046,52.453 96.271,51.834 93.121,51.834C89.596,51.834 86.39,52.528 83.502,53.915C80.615,55.303 78.159,57.29 76.134,59.878C74.109,62.465 72.534,65.597 71.409,69.272C70.284,72.947 69.721,77.072 69.721,81.647C69.721,86.297 70.284,90.478 71.409,94.19C72.534,97.903 74.109,101.072 76.134,103.697C78.159,106.322 80.615,108.347 83.502,109.772C86.39,111.197 89.596,111.909 93.121,111.909C96.496,111.909 99.515,111.197 102.177,109.772C104.84,108.347 107.371,106.322 109.771,103.697L115.059,109.434C112.134,112.809 108.834,115.434 105.159,117.309C101.484,119.184 97.171,120.122 92.221,120.122Z" style="fill:white;fill-rule:nonzero;"/>
                <rect x="129.796" y="78.159" width="48.375" height="6.975" style="fill:white;fill-rule:nonzero;"/>
                <path d="M229.134,118.772L229.134,98.972L192.121,98.972L192.121,92.784L228.009,46.997L237.909,46.997L237.909,91.547L249.046,91.547L249.046,98.972L237.909,98.972L237.909,118.772L229.134,118.772ZM202.359,91.547L229.134,91.547L229.134,69.272C229.209,67.322 229.284,65.203 229.359,62.915C229.434,60.628 229.546,58.509 229.696,56.559L229.134,56.559C228.009,58.284 226.809,60.028 225.534,61.79C224.259,63.553 223.021,65.297 221.821,67.022L202.359,91.547Z" style="fill:white;fill-rule:nonzero;"/>
            </g>
            <g transform="matrix(1.09636,0,0,1.09636,220.318,29.2216)">
                <path d="M90.646,120.122C85.996,120.122 81.721,119.259 77.821,117.534C73.921,115.809 70.546,113.315 67.696,110.053C64.846,106.79 62.634,102.778 61.059,98.015C59.484,93.253 58.696,87.872 58.696,81.872C58.696,75.947 59.502,70.603 61.115,65.84C62.727,61.078 64.977,57.065 67.865,53.803C70.752,50.54 74.202,48.028 78.215,46.265C82.227,44.503 86.634,43.622 91.434,43.622C93.909,43.622 96.159,43.884 98.184,44.409C100.209,44.934 102.065,45.628 103.752,46.49C105.44,47.353 106.94,48.309 108.252,49.359C109.565,50.409 110.746,51.497 111.796,52.622L106.509,58.584C104.709,56.634 102.646,55.022 100.321,53.747C97.996,52.472 95.034,51.834 91.434,51.834C87.984,51.834 84.852,52.528 82.04,53.915C79.227,55.303 76.809,57.29 74.784,59.878C72.759,62.465 71.202,65.597 70.115,69.272C69.027,72.947 68.484,77.072 68.484,81.647C68.484,86.297 68.99,90.478 70.002,94.19C71.015,97.903 72.477,101.072 74.39,103.697C76.302,106.322 78.684,108.347 81.534,109.772C84.384,111.197 87.609,111.909 91.209,111.909C93.834,111.909 96.271,111.515 98.521,110.728C100.771,109.94 102.609,108.872 104.034,107.522L104.034,88.284L89.296,88.284L89.296,80.522L112.696,80.522L112.696,111.572C110.371,113.972 107.315,115.997 103.527,117.647C99.74,119.297 95.446,120.122 90.646,120.122Z" style="fill:white;fill-rule:nonzero;"/>
                <rect x="129.796" y="78.159" width="48.375" height="6.975" style="fill:white;fill-rule:nonzero;"/>
                <path d="M229.134,118.772L229.134,98.972L192.121,98.972L192.121,92.784L228.009,46.997L237.909,46.997L237.909,91.547L249.046,91.547L249.046,98.972L237.909,98.972L237.909,118.772L229.134,118.772ZM202.359,91.547L229.134,91.547L229.134,69.272C229.209,67.322 229.284,65.203 229.359,62.915C229.434,60.628 229.546,58.509 229.696,56.559L229.134,56.559C228.009,58.284 226.809,60.028 225.534,61.79C224.259,63.553 223.021,65.297 221.821,67.022L202.359,91.547Z" style="fill:white;fill-rule:nonzero;"/>
            </g>
        </g>
    </g>
</svg>
